<svg width="102" height="122" viewBox="0 0 102 122" fill="none" xmlns="http://www.w3.org/2000/svg">
<g opacity="0.9">
<path d="M100.144 2.83447C98.7567 1.0065 96.8136 0 94.6716 0H7.33056C5.18686 0 3.24376 1.0065 1.85485 2.83447C0.48125 4.63803 -0.164751 7.00687 0.0358492 9.5038L8.22986 112.872C8.62766 117.905 12.4221 122 16.6874 122H85.3165C89.5801 122 93.3745 117.905 93.774 112.874L101.965 9.5038C102.164 7.00483 101.519 4.636 100.144 2.83447ZM90.4947 112.502C90.255 115.516 87.8852 118.065 85.3148 118.065H16.6857C14.1153 118.065 11.7421 115.516 11.5024 112.5L3.31175 9.12967C3.20295 7.74903 3.54975 6.4538 4.28926 5.47983C5.04746 4.4835 6.12526 3.9345 7.33056 3.9345H94.6716C95.8735 3.9345 96.953 4.4835 97.7129 5.47983C98.4507 6.4538 98.7958 7.74903 98.6887 9.12967L90.4947 112.502Z" fill="white"/>
<path d="M89.9368 58.5644C86.9516 57.7002 84.2418 57.383 84.2418 57.383C83.5516 54.396 78.9293 49.7661 73.1986 43.6559C71.9694 42.9646 70.5397 42.5843 69.3565 42.7409L59.6206 43.9446C57.6775 44.1825 55.4607 46.0613 54.5767 48.2207L51.7275 55.1666C52.0199 52.7449 51.5626 49.5322 50.5902 47.5233L44.4957 34.8495C43.3737 32.5254 40.7064 31.1529 38.5814 31.8198L26.5199 35.6262C24.4799 36.2688 22.1934 38.599 21.3179 40.9271L16.5409 53.7108C15.7385 55.6221 16.3471 58.0784 16.3471 58.0804L12.4864 58.483C10.9292 58.666 9.80886 60.2195 9.95846 62.1207L11.7163 84.2882C11.8761 86.3093 13.4129 87.9624 15.1265 87.9624H86.8717C88.5853 87.9624 90.1221 86.3093 90.2819 84.2882L92.0414 62.1207C92.1135 61.3229 91.9394 60.5211 91.5518 59.8661C91.1642 59.2111 90.5898 58.7482 89.9368 58.5644ZM56.0574 49.0849C56.6949 47.5274 58.4051 46.0715 59.7923 45.9007L69.5317 44.697C70.9801 44.518 72.998 45.4351 73.9636 46.6205L81.736 56.2199C82.0012 56.5452 82.2103 56.9763 82.3531 57.4664H68.8618C68.0849 56.5819 67.6174 55.8702 67.6174 55.8702C67.6174 55.8702 61.3852 46.0125 59.9113 47.8303C58.6703 49.3675 62.973 53.296 66.0806 57.4664H55.1105C55.4624 56.4964 55.8908 55.5042 56.3396 54.4529C58.4986 49.3838 56.904 49.211 55.0255 53.2777C54.4373 54.5485 53.708 56.0003 53.0297 57.4684H52.62L56.0574 49.0849ZM78.6641 59.4326C77.9671 59.6359 77.1766 59.9369 76.3198 60.3598C74.4141 61.2972 72.5254 60.5611 70.9902 59.4326H78.6641ZM18.2766 53.7982L22.819 41.7344C23.4905 39.9471 25.3758 38.0195 26.9398 37.5274L39.0047 33.7189C40.4038 33.2736 42.3248 34.2842 43.0694 35.8295L49.169 48.5013C50.0224 50.2643 50.4151 53.422 50.0326 55.3944L49.6314 57.4664H42.522C41.5683 55.0873 40.7404 52.7287 40.5364 50.8194C40.159 47.2488 41.638 42.8954 41.8998 38.7515C42.2313 33.4892 40.006 36.1651 39.258 42.4623C38.5066 48.7677 30.7512 50.1728 30.7512 50.1728C30.7512 50.1728 19.351 52.0333 19.9698 54.7579C20.762 58.2431 33.1295 49.8454 37.8674 52.9137C38.7344 53.4749 39.6269 55.2724 40.5075 57.4643H17.974C17.8057 56.1223 17.9128 54.7701 18.2766 53.7982ZM44.4957 72.446L30.7223 76.7506C28.9305 77.3097 26.6066 76.2077 25.5594 74.2984L18.0284 60.5936C17.8359 60.2284 17.6774 59.8391 17.5558 59.4326H20.49C20.2061 59.8413 20.5053 61.346 21.5576 63.4871C23.7642 67.9767 26.6372 75.2601 29.4864 74.3614C32.3356 73.4627 40.2083 70.9759 41.6652 70.5123C43.1255 70.0507 43.7103 67.0434 35.8767 69.518C28.0414 71.9946 26.066 67.9279 23.2372 62.5965C22.2393 60.7217 21.4726 59.7417 20.9847 59.4326H41.2589C43.1306 64.5261 44.8697 70.3537 46.0308 68.4261C46.755 67.2264 45.0431 63.481 43.3312 59.4326H50.0887L48.5315 67.4196C48.1014 69.6196 46.2892 71.8889 44.4957 72.446ZM82.8886 61.3826L77.469 72.8466C76.6224 74.6379 74.6164 76.5899 73.0133 77.1898L64.4367 80.372C62.837 80.9677 60.5811 80.2866 59.4336 78.8612L50.5834 67.8872C49.4308 66.4598 49.1095 63.7779 49.8711 61.9295L50.8962 59.4326H52.1746C51.1342 62.0088 50.5545 64.3899 51.5694 65.6404C53.4071 67.9076 58.4799 74.1682 59.4166 75.3313C60.3635 76.4903 62.548 75.677 57.4939 69.4448C54.2129 65.3944 53.8049 62.4155 54.5087 59.4326H67.4117C68.3314 60.9291 68.9791 62.4175 69.0115 63.7921C69.088 67.4806 59.9011 78.1312 62.6857 78.483C64.5846 78.7209 68.141 68.5176 71.5342 65.3496C73.6491 63.3773 77.095 62.7937 79.8643 61.1589C81.1784 60.3842 81.6238 59.7803 81.4385 59.4326H83.3544C83.3102 60.1239 83.164 60.799 82.8886 61.3826Z" fill="white"/>
</g>
</svg>
